<svg xmlns="http://www.w3.org/2000/svg" version="1.1" xmlns:xlink="http://www.w3.org/1999/xlink" xmlns:svgjs="http://svgjs.dev/svgjs" width="204" height="203"><svg width="204" height="203" viewBox="0 0 204 203" fill="none" xmlns="http://www.w3.org/2000/svg">
<path fill-rule="evenodd" clip-rule="evenodd" d="M146.398 14.6033C151.128 25.7027 150.89 40.9264 149.529 51.1343C149.501 51.3389 149.464 51.5396 149.417 51.7362C151.158 52.8758 152.825 54.2197 154.399 55.7913C158.968 54.3361 164.214 53.071 169.512 52.4015C175.624 51.6293 182.261 51.5896 188.101 53.3232C194.123 55.1109 199.642 58.9339 202.227 65.8537C204.686 72.4381 204.04 80.6915 200.671 90.5181C199.596 93.6527 196.184 95.3225 193.049 94.2478C189.914 93.1731 188.245 89.7608 189.319 86.6262C192.278 77.9966 192.049 72.9021 190.985 70.0525C190.046 67.5381 188.1 65.8407 184.686 64.827C181.089 63.7592 176.317 63.6372 171.017 64.3069C167.772 64.7168 164.499 65.4015 161.43 66.2292C162.111 67.9758 162.597 69.7753 162.891 71.6285C163.791 77.3034 162.807 82.9565 160.953 88.4308C158.208 96.5369 153.046 105.495 147.661 114.841C146.031 117.67 144.38 120.535 142.77 123.422C142.587 123.751 142.377 124.056 142.145 124.336C145.11 135.181 147.429 146.237 148.332 156.409C149.368 168.072 148.649 179.565 144.007 188.296C141.619 192.788 138.181 196.564 133.498 199.127C128.847 201.671 123.334 202.82 117.072 202.671C110.809 202.522 105.357 201.111 100.852 198.331C97.7827 196.437 95.3225 194.01 93.4054 191.205C89.7064 193.528 85.3542 195.163 80.9147 196.349C73.7287 198.267 65.4109 199.241 57.0813 199.633C40.411 200.419 22.8112 198.917 12.1856 197.334L7.78957 196.68L7.13485 192.283C5.51983 181.44 4.79245 162.691 6.3351 145.395C7.10699 136.74 8.46877 128.185 10.6896 121.047C11.8268 117.392 13.3009 113.731 15.279 110.568C14.0244 110.062 12.8227 109.485 11.6816 108.829C7.31626 106.322 3.83818 102.668 1.84308 97.7265C-0.116755 92.8721 -0.457789 87.2463 0.556284 81.017C2.18399 71.0182 6.55875 63.5224 13.2038 58.4878C19.7085 53.5596 27.7988 51.4357 36.154 50.9181C51.8524 49.9454 70.3226 54.546 86.2617 59.8854C95.1852 54.881 106.626 49.7073 118.091 47.4507C124.562 46.177 131.419 45.7726 137.923 47.095C138.868 37.9118 138.515 26.7149 135.359 19.3074C133.701 15.4171 131.612 13.339 129.261 12.5028C126.861 11.6492 122.728 11.5661 115.869 14.8773C112.885 16.3179 109.298 15.0666 107.857 12.0825C106.416 9.09831 107.668 5.5113 110.652 4.07067C119.085 -0.000644207 126.718 -1.13838 133.282 1.1967C139.896 3.54914 143.969 8.90295 146.398 14.6033ZM101.238 65.7068C109.481 69.4398 115.78 73.1912 119.805 75.588C120.173 75.8074 120.522 76.0154 120.852 76.211L117.793 81.3722L120.852 76.211C123.054 77.5162 123.808 79.6206 124.06 80.4781C124.111 80.6522 124.157 80.8262 124.197 80.9994C126.191 81.53 127.973 82.9369 128.86 85.1719C131.601 92.0748 134.586 100.089 137.391 108.609C137.51 108.402 137.629 108.195 137.747 107.99C142.949 98.95 147.256 91.4658 149.587 84.5818C151.075 80.1875 151.53 76.6 151.039 73.5079C150.567 70.5309 149.14 67.503 145.93 64.2932C140.024 58.3869 131.167 57.1071 120.408 59.2247C113.98 60.49 107.369 62.8902 101.238 65.7068ZM110.728 94.6993C96.1782 100.438 79.3358 106.116 63.3767 109.723C72.0215 119.956 83.9951 133.743 91.7629 142.649C96.1006 126.357 103.379 109.117 110.728 94.6993ZM76.5457 143.446C67.7292 133.3 56.7381 120.565 49.8614 112.279C47.7139 112.596 45.6024 112.86 43.5359 113.066C38.4996 113.567 33.5116 113.745 28.7989 113.418C28.6046 113.581 28.3978 113.734 28.1787 113.875C26.3678 115.039 24.1116 118.299 22.1479 124.612C21.9757 125.165 21.8088 125.732 21.6469 126.312L76.5457 143.446ZM18.4079 145.167C18.3663 145.597 18.3263 146.028 18.2877 146.461C17.0207 160.666 17.3863 175.869 18.4501 186.072C28.3266 187.28 42.2338 188.238 55.5031 187.691L18.4079 145.167ZM70.2339 186.323C72.9301 185.9 75.475 185.381 77.819 184.755C82.9337 183.389 86.523 181.664 88.7377 179.806C87.4424 173.637 87.4909 166.748 88.3544 159.702L31.5444 141.972L70.2339 186.323ZM121.603 99.7869C112.674 117.242 104.007 138.727 100.913 156.779C99.0487 167.654 99.3887 176.296 101.956 181.996C103.178 184.71 104.884 186.718 107.155 188.119C109.462 189.543 112.719 190.564 117.358 190.675C121.99 190.785 125.318 189.923 127.738 188.599C130.125 187.293 131.987 185.344 133.412 182.663C136.395 177.051 137.352 168.418 136.379 157.47C134.773 139.385 128.186 117.678 121.603 99.7869ZM20.4505 68.0527C16.6057 70.9656 13.607 75.5331 12.4004 82.9451C11.6297 87.6794 12.0537 90.9633 12.9705 93.2342C13.852 95.4177 15.3621 97.1049 17.6584 98.4238C22.6206 101.274 31.0245 102.251 42.3479 101.125C62.3098 99.1389 87.5837 91.0496 108.283 82.7576C102.516 79.4968 94.6706 75.4732 84.9353 72.1097C68.6719 66.4907 50.9386 62.025 36.8961 62.8951C29.9516 63.3254 24.4356 65.0334 20.4505 68.0527Z" fill="#212121"></path>
</svg><style>@media (prefers-color-scheme: light) { :root { filter: none; } }
@media (prefers-color-scheme: dark) { :root { filter: invert(100%); } }
</style></svg>