<?xml version="1.0" encoding="UTF-8"?>
<svg id="Layer_2" data-name="Layer 2" xmlns="http://www.w3.org/2000/svg" viewBox="0 0 195 256.82">
  <defs>
    <style>
      .cls-1 {
        fill: #191919;
      }
    </style>
  </defs>
  <g id="Layer_3" data-name="Layer 3">
    <path class="cls-1" d="M182.18,61.82h-14.26C164.78,27.21,135.62,0,100.21,0S35.64,27.21,32.5,61.82H12.82c-7.08,0-12.82,5.74-12.82,12.82v169.35c0,7.08,5.74,12.82,12.82,12.82h169.35c7.08,0,12.82-5.74,12.82-12.82V74.65c0-7.08-5.74-12.82-12.82-12.82ZM100.21,24c22.16,0,40.54,16.48,43.56,37.82H56.65c3.01-21.35,21.39-37.82,43.56-37.82ZM165.72,232.82H30.08c-3.36,0-6.08-2.72-6.08-6.08V91.67c0-3.23,2.62-5.85,5.85-5.85h135.13c3.32,0,6.02,2.69,6.02,6.02v135.7c0,2.92-2.36,5.28-5.28,5.28Z"/>
  </g>
</svg>