<?xml version="1.0" encoding="UTF-8"?>
<svg id="Layer_2" data-name="Layer 2" xmlns="http://www.w3.org/2000/svg" viewBox="0 0 13.67 18">
  <defs>
    <style>
      .cls-1 {
        fill: #212121;
      }
    </style>
  </defs>
  <g id="Layer_3" data-name="Layer 3">
    <path class="cls-1" d="M12.77,4.33h-1c-.22-2.43-2.26-4.33-4.75-4.33S2.5,1.91,2.28,4.33H.9c-.5,0-.9.4-.9.9v11.87c0,.5.4.9.9.9h11.87c.5,0,.9-.4.9-.9V5.23c0-.5-.4-.9-.9-.9ZM7.02,2.01c1.37,0,2.5,1.01,2.7,2.32h-5.4c.2-1.31,1.33-2.32,2.7-2.32ZM11.63,15.62c0,.19-.15.34-.34.34H2.43c-.22,0-.4-.18-.4-.4V6.75c0-.21.17-.38.38-.38h8.82c.22,0,.39.18.39.39v8.86Z"/>
  </g>
</svg>