<svg width="338" height="71" viewBox="0 0 338 71" fill="none" xmlns="http://www.w3.org/2000/svg">
<path fill-rule="evenodd" clip-rule="evenodd" d="M158.047 69.1811C161.182 70.0361 165.457 70.5111 169.447 70.5111C184.077 70.5111 199.942 63.8611 208.017 55.7861C212.197 51.6061 214.382 47.1411 213.717 42.2961C213.242 38.8761 211.247 36.4061 208.302 34.4111C214.857 31.3711 219.797 26.2411 223.122 20.6361C226.447 14.9361 225.212 7.05107 219.132 3.53607C215.712 1.54106 210.867 0.591064 204.407 0.591064C198.422 0.591064 192.532 1.44606 187.687 2.87106C185.502 3.53607 185.407 4.20106 185.692 5.15106C186.642 7.90607 187.877 10.5661 189.587 12.0861C181.037 23.8661 165.552 46.6661 159.947 55.4061C158.807 57.2111 159.282 58.1611 162.227 59.9661C159.947 62.4361 157.477 65.6661 156.812 66.7111C156.147 67.8511 156.622 68.8011 158.047 69.1811ZM220.177 13.1311C217.707 20.0661 208.017 26.6211 192.912 28.9961C195.572 24.6261 197.947 20.5411 199.562 17.2161C200.227 15.7911 200.132 14.2711 199.372 12.4661C203.362 11.1361 207.257 10.5661 210.582 10.5661C215.332 10.5661 218.942 11.5161 220.177 13.1311ZM206.877 42.3911C205.737 50.9411 192.152 57.4961 173.817 58.0661C177.997 52.0811 183.127 44.4811 187.877 37.0711C197.377 37.5461 204.407 39.4461 206.877 42.3911ZM300.422 65.0011C301.277 66.5211 302.892 67.3761 305.362 67.3761C308.668 67.3761 314.053 65.4156 319.403 63.4678C320.818 62.9525 322.231 62.4381 323.602 61.9611C326.927 60.9161 327.592 59.9661 327.972 59.2061C328.061 59.0057 328.151 58.8157 328.235 58.6362L328.235 58.6359L328.235 58.6352C328.51 58.0493 328.732 57.5745 328.732 57.2111C328.732 56.8311 328.162 56.8311 327.117 57.2111C324.457 57.9711 319.137 59.2061 313.342 59.8711C316.764 56.5904 320.624 53.4484 324.342 50.4224C328.161 47.3146 331.829 44.3291 334.717 41.4411C336.332 39.8261 337.187 38.4961 337.187 37.2611C337.187 35.8361 335.667 34.6011 334.052 33.3661C332.247 32.0361 330.062 30.8961 327.782 30.8961C324.932 30.8961 320.372 32.0361 315.622 33.2711C312.487 34.1261 309.637 34.6961 307.452 34.7911C306.882 34.7911 306.692 35.2661 306.977 35.6461C307.185 35.9369 307.356 36.2822 307.531 36.6344C307.756 37.0875 307.987 37.5519 308.307 37.9261C309.162 38.9711 310.777 39.5411 312.772 39.3511C314.587 39.2301 316.864 38.6083 319.358 37.9273C320.781 37.5388 322.274 37.1311 323.792 36.7861C318.947 41.0611 311.157 46.6661 302.227 53.0311C299.092 55.3111 298.522 56.1661 298.712 58.7311C298.807 61.0111 299.377 63.2911 300.422 65.0011ZM265.773 65.2861C266.723 66.8061 268.338 67.4711 270.523 67.4711C274.038 67.4711 280.783 65.3811 288.003 62.6261C291.518 61.2961 292.658 60.6311 293.038 59.8711L293.988 57.9711C294.178 57.5911 293.893 57.3061 293.323 57.4011C289.808 57.9711 284.773 58.7311 277.363 59.5861C282.923 55.0536 287.829 51.3669 292.033 48.208C294.438 46.4012 296.613 44.767 298.548 43.2461C301.588 40.8711 303.108 38.7811 303.108 36.9761C303.108 35.2661 301.588 34.2211 298.833 32.7961C296.078 31.3711 295.128 31.0861 293.798 31.0861C289.713 31.0861 279.738 33.5561 273.183 35.4561C272.803 35.5511 272.708 36.1211 273.088 36.5011C273.446 36.9306 273.75 37.4681 274 37.9101C274.082 38.0547 274.158 38.189 274.228 38.3061C274.855 39.3796 275.734 39.2737 277.183 39.099C277.272 39.0882 277.364 39.0771 277.458 39.0661C280.118 38.7811 283.633 38.4011 287.623 37.9261C280.403 43.7211 274.893 47.6161 270.903 50.3711C265.203 54.2661 263.968 56.5461 263.968 58.6361C263.968 59.4911 264.728 63.6711 265.773 65.2861ZM243.745 63.3861C240.705 61.2961 240.04 58.9211 240.704 56.0711C235.289 62.9111 229.97 67.1861 225.885 67.1861C223.985 67.1861 222.18 66.4261 219.9 64.9061C217.049 62.9111 216.195 61.0111 216.195 58.6361C216.195 55.6911 217.904 51.9861 221.609 47.0461C227.689 38.9711 231.11 34.2211 231.775 32.8911C232.439 31.6561 233.01 31.0861 234.245 31.0861C235.575 31.0861 239.185 31.5611 241.18 32.2261C244.79 33.4611 244.029 37.1661 241.939 40.6811C239.319 45.094 237.01 48.3059 235.078 50.9947L235.077 50.9949C233.016 53.8627 231.382 56.1355 230.255 58.6361C234.245 57.8761 241.56 52.5561 249.825 36.5011C250.395 35.3611 250.87 34.9811 251.63 34.9811C252.77 34.9811 255.905 35.2661 257.805 35.5511C261.889 36.1211 262.745 37.6411 260.939 41.1561C260.495 42.0459 259.784 43.2762 258.958 44.7076L258.958 44.7079L258.957 44.7085C256.431 49.0845 252.819 55.3395 252.39 59.4911C255.24 59.0161 257.995 57.5911 260.464 55.0261C260.654 54.8361 260.939 54.8361 261.034 55.0261C261.129 55.3111 261.224 56.0711 261.224 56.4511C261.224 56.8311 261.129 57.4011 260.464 58.2561C258.184 61.2961 253.815 65.2861 248.78 65.2861C246.975 65.2861 245.265 64.4311 243.745 63.3861ZM135.521 67.1861C131.436 67.1861 128.681 65.6661 126.211 62.9111C121.936 58.0661 121.271 51.6061 127.446 43.3411C132.671 36.4061 142.266 30.7061 147.871 30.7061C150.056 30.7061 151.766 30.9911 153.666 32.1311C156.421 33.8411 157.086 34.8861 157.086 35.4561C157.086 35.8361 156.991 36.1211 156.041 36.6911C157.276 38.3061 158.036 40.4911 158.036 43.1511C158.036 52.4611 147.776 67.1861 135.521 67.1861ZM154.141 40.3961C154.141 39.3511 153.951 38.4011 153.761 37.9261C144.356 42.6761 134.191 51.7011 135.236 60.3461C144.261 59.4911 154.141 48.8511 154.141 40.3961ZM91.2324 64.7161C93.3224 66.1411 94.9374 66.8061 96.3624 66.8061C97.8824 66.8061 98.4524 66.2361 102.537 60.6311C113.462 45.7161 122.582 37.0711 131.512 30.6111C132.652 29.7561 133.317 29.1861 133.317 28.2361C133.317 27.2861 133.032 25.7661 132.272 25.7661C131.797 25.7661 130.942 26.2411 129.232 27.1911C123.912 30.2311 119.162 33.1761 113.937 37.6411C114.982 33.4611 114.127 32.1311 112.797 31.3711C111.562 30.7061 109.377 30.1361 107.667 30.0411C106.527 29.9461 106.052 30.1361 105.767 30.7061C104.546 33.0558 100.627 39.1252 94.9317 46.7981C94.8538 46.6365 94.7286 46.4684 94.5463 46.2861L94.2613 46.0011C93.9763 45.7161 93.7863 45.8111 93.1213 46.6661L92.8363 47.0461C85.9963 56.1661 76.8763 61.2011 69.2763 61.2011C67.8513 61.2011 66.4263 61.0111 65.2863 60.6311C65.1913 59.4911 65.2863 58.3511 65.4763 57.1161C71.8413 55.2161 77.3513 52.8411 80.8663 50.6561C86.9463 46.8561 88.9413 43.9111 88.9413 41.6311C88.9413 39.4461 87.7063 37.7361 85.6163 35.9311C82.9563 31.9411 80.9613 31.0861 78.3963 31.0861C71.9363 31.0861 62.6263 36.7861 57.3063 43.8161C53.2213 49.3261 51.8913 55.1211 53.3163 58.3511C54.7413 61.6761 57.5913 64.7161 60.4413 66.1411C62.0563 66.9961 63.9563 67.3761 66.4263 67.3761C73.7287 67.3761 82.7151 62.3803 89.2865 55.3659C88.4837 57.0411 88.0974 58.4824 88.0974 59.8711C88.0974 61.9611 89.0474 63.1961 91.2324 64.7161ZM77.8263 46.8561C82.0063 43.8161 83.3363 41.3461 83.1463 38.5911C77.2563 40.0161 70.4163 46.0011 67.1863 52.5561C71.3663 50.8461 75.5463 48.6611 77.8263 46.8561ZM1.23399 65.0011C2.37399 67.6611 3.22899 68.6111 5.60399 68.6111C7.69399 68.6111 27.359 66.4261 38.759 64.3361C41.039 63.9561 43.129 62.6261 44.269 61.1061C45.409 59.5861 46.264 57.7811 46.264 57.3061C46.264 56.9261 46.074 56.7361 44.554 56.8311C34.959 57.4961 24.414 58.0661 14.249 58.2561C22.5255 51.092 31.5107 44.1989 40.3844 37.3912C50.4557 29.6648 60.3836 22.0485 68.969 14.2711C71.534 11.9911 72.579 10.4711 72.579 9.14107C72.579 7.05107 71.534 4.67606 70.394 2.96606C69.254 1.44607 68.304 1.16106 65.739 1.16106C62.319 1.16106 45.789 2.49106 37.809 3.53607C33.629 4.10607 31.539 4.96107 29.829 7.81106C28.689 9.71107 28.404 10.3761 28.404 10.9461C28.404 11.3261 28.594 11.5161 30.209 11.3261C39.234 10.3761 47.214 9.71107 55.859 9.14107C48.7893 15.2132 40.2345 22.117 31.7134 28.9936C21.5703 37.1791 11.475 45.3261 3.98899 51.9861C-0.666006 56.1661 -0.761006 60.2511 1.23399 65.0011Z" fill="black"/>
</svg>
