<svg width="119" height="25" viewBox="0 0 119 25" fill="none" xmlns="http://www.w3.org/2000/svg">
<path fill-rule="evenodd" clip-rule="evenodd" d="M55.6438 24.1514C56.7475 24.4525 58.2526 24.6197 59.6574 24.6197C64.8082 24.6197 70.3938 22.2782 73.2367 19.4349C74.7084 17.963 75.4777 16.3909 75.2436 14.6849C75.0763 13.4806 74.3739 12.6109 73.3371 11.9085C75.6449 10.838 77.3841 9.0317 78.5548 7.05811C79.7254 5.05107 79.2906 2.27465 77.15 1.03697C75.9459 0.334506 74.2402 0 71.9658 0C69.8586 0 67.7849 0.301055 66.0791 0.802815C65.3099 1.03697 65.2764 1.27113 65.3768 1.60563C65.7112 2.57571 66.146 3.51234 66.7481 4.04755C63.7379 8.19543 58.2861 16.2236 56.3127 19.3011C55.9113 19.9366 56.0786 20.2711 57.1154 20.9067C56.3127 21.7764 55.4431 22.9137 55.209 23.2817C54.9748 23.6831 55.1421 24.0176 55.6438 24.1514ZM77.5179 4.41551C76.6483 6.85741 73.2368 9.16551 67.9187 10.0018C68.8552 8.46304 69.6914 7.02466 70.26 5.85389C70.4941 5.35213 70.4607 4.81691 70.1931 4.18135C71.5979 3.71304 72.9692 3.51234 74.1398 3.51234C75.8122 3.51234 77.0831 3.84684 77.5179 4.41551ZM72.8354 14.7183C72.434 17.7289 67.6511 20.037 61.1959 20.2377C62.6676 18.1303 64.4737 15.4542 66.146 12.8451C69.4907 13.0123 71.9658 13.6814 72.8354 14.7183ZM105.77 22.6796C106.071 23.2148 106.639 23.5159 107.509 23.5159C108.673 23.5159 110.569 22.8255 112.453 22.1397C112.951 21.9583 113.448 21.7771 113.931 21.6092C115.102 21.2412 115.336 20.9067 115.469 20.6391C115.501 20.5685 115.532 20.5016 115.562 20.4384C115.659 20.2321 115.737 20.0646 115.737 19.9366C115.737 19.8028 115.536 19.8028 115.168 19.9366C114.232 20.2042 112.359 20.6391 110.319 20.8733C111.523 19.7181 112.882 18.6117 114.191 17.5462C115.536 16.4519 116.827 15.4007 117.844 14.3838C118.413 13.8152 118.714 13.3468 118.714 12.912C118.714 12.4102 118.179 11.9754 117.61 11.5405C116.975 11.0722 116.205 10.6708 115.403 10.6708C114.399 10.6708 112.794 11.0722 111.121 11.5071C110.018 11.8081 109.014 12.0088 108.245 12.0423C108.044 12.0423 107.977 12.2095 108.078 12.3433C108.151 12.4457 108.211 12.5673 108.273 12.6913C108.352 12.8509 108.433 13.0144 108.546 13.1461C108.847 13.5141 109.416 13.7148 110.118 13.6479C110.757 13.6053 111.559 13.3864 112.437 13.1466C112.938 13.0098 113.463 12.8662 113.998 12.7447C112.292 14.25 109.549 16.2236 106.405 18.4648C105.302 19.2676 105.101 19.5687 105.168 20.4718C105.201 21.2747 105.402 22.0775 105.77 22.6796ZM93.571 22.7799C93.9054 23.3152 94.474 23.5493 95.2433 23.5493C96.4808 23.5493 98.8555 22.8134 101.397 21.8433C102.635 21.375 103.036 21.1409 103.17 20.8733L103.505 20.2042C103.572 20.0704 103.471 19.9701 103.271 20.0035C102.033 20.2042 100.26 20.4718 97.6515 20.7729C99.609 19.177 101.336 17.8788 102.816 16.7665C103.663 16.1303 104.429 15.5549 105.11 15.0194C106.18 14.1831 106.716 13.4472 106.716 12.8116C106.716 12.2095 106.18 11.8416 105.21 11.3398C104.24 10.838 103.906 10.7377 103.438 10.7377C102 10.7377 98.4876 11.6074 96.1798 12.2764C96.046 12.3099 96.0126 12.5106 96.1464 12.6444C96.2724 12.7956 96.3794 12.9849 96.4675 13.1405C96.4963 13.1914 96.5231 13.2387 96.5477 13.2799C96.7685 13.6579 97.0779 13.6206 97.5881 13.5591C97.6194 13.5553 97.6518 13.5514 97.6849 13.5475C98.6214 13.4472 99.8589 13.3134 101.264 13.1461C98.7218 15.1866 96.7819 16.5581 95.3771 17.5282C93.3703 18.8997 92.9355 19.7025 92.9355 20.4384C92.9355 20.7394 93.2031 22.2113 93.571 22.7799ZM85.8155 22.1109C84.7452 21.375 84.5111 20.5387 84.7449 19.5352C82.8384 21.9437 80.9658 23.449 79.5276 23.449C78.8586 23.449 78.2231 23.1813 77.4204 22.6461C76.4167 21.9437 76.116 21.2747 76.116 20.4384C76.116 19.4014 76.7177 18.0968 78.0221 16.3574C80.1627 13.5141 81.3671 11.8416 81.6013 11.3733C81.835 10.9384 82.0361 10.7377 82.4709 10.7377C82.9391 10.7377 84.2101 10.9049 84.9125 11.1391C86.1835 11.574 85.9155 12.8785 85.1797 14.1162C84.2573 15.67 83.4443 16.801 82.7641 17.7478L82.7638 17.7478C82.0382 18.7576 81.4629 19.5579 81.0661 20.4384C82.4709 20.1708 85.0463 18.2975 87.9561 12.6444C88.1568 12.243 88.3241 12.1092 88.5916 12.1092C88.993 12.1092 90.0967 12.2095 90.7657 12.3099C92.2035 12.5106 92.5049 13.0458 91.869 14.2835C91.7127 14.5968 91.4624 15.03 91.1716 15.534L91.1712 15.5343C90.2819 17.0752 89.0102 19.2776 88.8592 20.7394C89.8626 20.5722 90.8326 20.0704 91.7018 19.1673C91.7687 19.1004 91.8691 19.1004 91.9025 19.1673C91.9359 19.2676 91.9694 19.5352 91.9694 19.669C91.9694 19.8028 91.9359 20.0035 91.7018 20.3046C90.8991 21.375 89.3609 22.7799 87.5882 22.7799C86.9527 22.7799 86.3507 22.4789 85.8155 22.1109ZM47.713 23.449C46.2748 23.449 45.3048 22.9137 44.4352 21.9437C42.9301 20.2377 42.696 17.963 44.87 15.0528C46.7096 12.6109 50.0877 10.6039 52.0611 10.6039C52.8304 10.6039 53.4324 10.7042 54.1013 11.1056C55.0713 11.7078 55.3054 12.0757 55.3054 12.2764C55.3054 12.4102 55.272 12.5106 54.9375 12.7113C55.3723 13.2799 55.6399 14.0493 55.6399 14.9859C55.6399 18.2641 52.0276 23.449 47.713 23.449ZM54.2686 14.0159C54.2686 13.6479 54.2017 13.3134 54.1348 13.1461C50.8236 14.8187 47.2448 17.9965 47.6127 21.0405C50.7901 20.7394 54.2686 16.993 54.2686 14.0159ZM32.1203 22.5792C32.8561 23.081 33.4247 23.3152 33.9264 23.3152C34.4616 23.3152 34.6622 23.1144 36.1003 21.1409C39.9467 15.8891 43.1576 12.8451 46.3016 10.5704C46.7029 10.2694 46.937 10.0687 46.937 9.73417C46.937 9.39966 46.8367 8.86445 46.5691 8.86445C46.4019 8.86445 46.1009 9.0317 45.4988 9.36621C43.6258 10.4366 41.9535 11.4736 40.1139 13.0458C40.4818 11.574 40.1808 11.1056 39.7126 10.838C39.2777 10.6039 38.5085 10.4032 37.9064 10.3697C37.5051 10.3363 37.3378 10.4032 37.2375 10.6039C36.8076 11.4312 35.4278 13.5684 33.4227 16.2701C33.3953 16.2132 33.3512 16.154 33.287 16.0898L33.1867 15.9894C33.0863 15.8891 33.0194 15.9225 32.7853 16.2236L32.685 16.3574C30.2768 19.5687 27.0659 21.3416 24.3902 21.3416C23.8885 21.3416 23.3868 21.2747 22.9854 21.1409C22.952 20.7394 22.9854 20.338 23.0523 19.9032C25.2932 19.2342 27.2331 18.3979 28.4707 17.6285C30.6113 16.2905 31.3137 15.2535 31.3137 14.4507C31.3137 13.6814 30.8788 13.0792 30.143 12.4437C29.2065 11.0387 28.5041 10.7377 27.6011 10.7377C25.3267 10.7377 22.0489 12.7447 20.1759 15.2201C18.7377 17.1602 18.2694 19.2007 18.7711 20.338C19.2728 21.5088 20.2762 22.5792 21.2796 23.081C21.8482 23.3821 22.5172 23.5159 23.3868 23.5159C25.9577 23.5159 29.1216 21.7568 31.4352 19.2869C31.1525 19.8768 31.0165 20.3843 31.0165 20.8733C31.0165 21.6092 31.351 22.044 32.1203 22.5792ZM27.4004 16.2905C28.872 15.2201 29.3403 14.3504 29.2734 13.3803C27.1997 13.8821 24.7915 15.9894 23.6543 18.2975C25.126 17.6954 26.5977 16.9261 27.4004 16.2905ZM0.434453 22.6796C0.835813 23.6162 1.13683 23.9507 1.973 23.9507C2.70883 23.9507 9.63231 23.1814 13.6459 22.4454C14.4486 22.3116 15.1845 21.8433 15.5858 21.3081C15.9872 20.7729 16.2882 20.1373 16.2882 19.9701C16.2882 19.8363 16.2213 19.7694 15.6862 19.8028C12.308 20.037 8.59546 20.2377 5.01666 20.3046C7.93058 17.782 11.094 15.3549 14.2182 12.9578C17.764 10.2372 21.2593 7.55544 24.282 4.81691C25.185 4.0141 25.553 3.47889 25.553 3.01057C25.553 2.27465 25.185 1.43838 24.7837 0.836266C24.3823 0.301058 24.0479 0.200703 23.1448 0.200703C21.9407 0.200703 16.121 0.669013 13.3115 1.03697C11.8398 1.23768 11.104 1.53873 10.5019 2.54225C10.1006 3.21127 10.0002 3.44544 10.0002 3.64614C10.0002 3.77994 10.0671 3.84684 10.6357 3.77994C13.8132 3.44544 16.6227 3.21127 19.6663 3.01057C17.1773 5.14864 14.1654 7.57956 11.1654 10.0009C7.59428 12.8831 4.04002 15.7518 1.40441 18.0968C-0.234481 19.5687 -0.267928 21.0071 0.434453 22.6796Z" fill="#212121"/>
</svg>
