<?xml version="1.0" encoding="UTF-8"?>
<svg id="Layer_2" data-name="Layer 2" xmlns="http://www.w3.org/2000/svg" viewBox="0 0 17.61 18">
  <defs>
    <style>
      .cls-1 {
        fill: #212121;
      }
    </style>
  </defs>
  <g id="Layer_3" data-name="Layer 3">
    <g>
      <path class="cls-1" d="M9.03,12.44c3.71,0,5.31.74,5.93,1.18.3.21.45.41.52.54.04.08.07.17.07.27h0v.94c0,.31-.25.57-.57.57H2.63c-.31,0-.57-.25-.57-.57v-.88c0-.12.04-.24.11-.34.11-.15.32-.36.7-.59.86-.51,2.63-1.13,6.15-1.13M9.03,10.38C0,10.38,0,14.19,0,14.19v2.2c0,.89.72,1.61,1.61,1.61h14.38c.89,0,1.62-.73,1.62-1.62v-1.93s0-.02,0-.04c.02-.26.14-4.04-8.58-4.04h0Z"/>
      <path class="cls-1" d="M9.03,2.04c1.53,0,2.77,1.24,2.77,2.77s-1.24,2.77-2.77,2.77-2.77-1.24-2.77-2.77,1.24-2.77,2.77-2.77M9.03,0c-2.65,0-4.8,2.16-4.8,4.8s2.16,4.8,4.8,4.8,4.8-2.16,4.8-4.8S11.67,0,9.03,0h0Z"/>
    </g>
  </g>
</svg>