<?xml version="1.0" encoding="UTF-8"?>
<svg id="Layer_2" data-name="Layer 2" xmlns="http://www.w3.org/2000/svg" viewBox="0 0 205.27 209.82">
  <defs>
    <style>
      .cls-1 {
        fill: #191919;
      }
    </style>
  </defs>
  <g id="Layer_3" data-name="Layer 3">
    <g>
      <path class="cls-1" d="M105.21,24c17.64,0,32,14.36,32,32s-14.36,32-32,32-32-14.36-32-32,14.36-32,32-32M105.21,0c-30.88,0-56,25.12-56,56s25.12,56,56,56,56-25.12,56-56S136.09,0,105.21,0h0Z"/>
      <path class="cls-1" d="M105.21,145c43.25,0,61.87,8.63,69.12,13.78,3.52,2.5,5.26,4.75,6.12,6.33.52.96.78,2.03.78,3.12h0v10.99c0,3.65-2.96,6.6-6.6,6.6H30.6c-3.65,0-6.6-2.96-6.6-6.6v-10.29c0-1.42.45-2.8,1.3-3.94,1.3-1.75,3.72-4.19,8.17-6.84,10.05-6,30.66-13.14,71.74-13.14M105.21,121C0,121,0,165.41,0,165.41v25.69c0,10.34,8.38,18.72,18.72,18.72h167.62c10.43,0,18.88-8.45,18.88-18.88v-22.45c0-.14,0-.28.01-.42.21-2.99,1.61-47.07-100.03-47.07h0Z"/>
    </g>
  </g>
</svg>