<?xml version="1.0" encoding="UTF-8"?>
<svg id="Layer_2" data-name="Layer 2" xmlns="http://www.w3.org/2000/svg" viewBox="0 0 18.29 18">
  <defs>
    <style>
      .cls-1 {
        fill: #212121;
      }
    </style>
  </defs>
  <g id="Layer_3" data-name="Layer 3">
    <path class="cls-1" d="M17.97,16.22l-4.96-4.68c-.34-.32-.42-.84-.19-1.25.6-1.04.93-2.25.91-3.54C13.67,3.07,10.67.07,7,0,3.1-.07-.07,3.1,0,7c.07,3.67,3.06,6.67,6.73,6.74,1.3.02,2.52-.31,3.57-.92.39-.23.89-.16,1.22.15l5.04,4.76c.41.39,1.05.37,1.44-.04h0c.39-.42.37-1.08-.04-1.47ZM2.07,7.18c-.19-2.9,2.21-5.3,5.11-5.11,2.4.15,4.33,2.09,4.48,4.48.19,2.9-2.21,5.3-5.11,5.11-2.4-.15-4.33-2.09-4.48-4.48Z"/>
  </g>
</svg>