<?xml version="1.0" encoding="UTF-8"?>
<svg id="Layer_2" data-name="Layer 2" xmlns="http://www.w3.org/2000/svg" viewBox="0 0 213.07 209.65">
  <defs>
    <style>
      .cls-1 {
        fill: #191919;
      }
    </style>
  </defs>
  <g id="Layer_3" data-name="Layer 3">
    <path class="cls-1" d="M209.3,188.86l-57.73-54.53c-3.99-3.77-4.9-9.78-2.16-14.54,6.96-12.11,10.85-26.22,10.58-41.25C159.23,35.74,124.3.8,81.5.01,36.14-.82-.81,36.12.01,81.48c.78,42.77,35.66,77.68,78.43,78.5,15.16.29,29.38-3.65,41.57-10.71,4.59-2.66,10.4-1.92,14.26,1.73l58.67,55.41c4.76,4.49,12.25,4.28,16.75-.48l.1-.11c4.55-4.82,4.33-12.41-.49-16.97ZM24.12,83.66c-2.16-33.76,25.79-61.7,59.54-59.54,27.9,1.78,50.44,24.32,52.22,52.22,2.16,33.76-25.79,61.7-59.54,59.54-27.9-1.78-50.44-24.32-52.22-52.22Z"/>
  </g>
</svg>